<svg xmlns="http://www.w3.org/2000/svg" viewBox="0 0 33.26 31.038">
  <defs>
    <style>
      .cls-1 {
        fill: #fff;
      }
    </style>
  </defs>
  <path id="abacus" class="cls-1" d="M32.4,33.39h-.6V7.336a.858.858,0,1,0-1.716,0V9.743H18.352V9.218a1.761,1.761,0,0,0-1.759-1.759h-.117a1.761,1.761,0,0,0-1.759,1.759v.525H12.861V9.218A1.761,1.761,0,0,0,11.1,7.459h-.117A1.761,1.761,0,0,0,9.227,9.218v.525H8.571V9.218A1.761,1.761,0,0,0,6.812,7.459H6.7A1.761,1.761,0,0,0,4.937,9.218v.525H3.177V7.336a.858.858,0,1,0-1.716,0V33.39h-.6A.858.858,0,0,0,0,34.248v2.41a.858.858,0,0,0,.858.858H32.4a.858.858,0,0,0,.858-.858v-2.41A.858.858,0,0,0,32.4,33.39ZM6.7,13.742h.117a1.761,1.761,0,0,0,1.759-1.759v-.525h.656v.525a1.761,1.761,0,0,0,1.759,1.759H11.1a1.761,1.761,0,0,0,1.759-1.759v-.525h1.857v.525a1.761,1.761,0,0,0,1.759,1.759h.117a1.761,1.761,0,0,0,1.759-1.759v-.525H30.083v5.431H28.138v-.525a1.761,1.761,0,0,0-1.759-1.759h-.117A1.761,1.761,0,0,0,24.5,16.364v.525H22.951v-.525a1.761,1.761,0,0,0-1.759-1.759h-.117a1.761,1.761,0,0,0-1.759,1.759v.525H3.177V11.458h1.76v.525A1.76,1.76,0,0,0,6.7,13.742Zm14.5,9.04h-.117a1.761,1.761,0,0,0-1.759,1.759v.525H16.122V24.54a1.761,1.761,0,0,0-1.759-1.759h-.117a1.761,1.761,0,0,0-1.759,1.759v.525h-.656V24.54a1.761,1.761,0,0,0-1.759-1.759H9.956A1.761,1.761,0,0,0,8.2,24.54v.525H7.713V24.54a1.761,1.761,0,0,0-1.759-1.759H5.838A1.761,1.761,0,0,0,4.079,24.54v.525h-.9v-6.46h16.14v.525a1.761,1.761,0,0,0,1.759,1.759h.117a1.761,1.761,0,0,0,1.759-1.759v-.525H24.5v.525a1.761,1.761,0,0,0,1.759,1.759h.117a1.761,1.761,0,0,0,1.759-1.759v-.525h1.945v6.46H22.951V24.54A1.761,1.761,0,0,0,21.192,22.782Zm-18.015,4h.9v.525a1.761,1.761,0,0,0,1.759,1.759h.117a1.761,1.761,0,0,0,1.759-1.759v-.525H8.2v.525a1.761,1.761,0,0,0,1.759,1.759h.117a1.761,1.761,0,0,0,1.759-1.759v-.525h.656v.525a1.761,1.761,0,0,0,1.759,1.759h.117a1.761,1.761,0,0,0,1.759-1.759v-.525h3.195v.525a1.761,1.761,0,0,0,1.759,1.759h.117a1.761,1.761,0,0,0,1.759-1.759v-.525h7.132V33.39H3.177Z" transform="translate(0 -6.478)"/>
</svg>
