<svg xmlns="http://www.w3.org/2000/svg" viewBox="0 0 37.001 29.048">
  <defs>
    <style>
      .cls-1 {
        fill: #fff;
      }
    </style>
  </defs>
  <g id="bars" transform="translate(0 -2.018)">
    <g id="Group_258" data-name="Group 258" transform="translate(0 2.018)">
      <path id="Path_152" data-name="Path 152" class="cls-1" d="M4.424,10.5H.536a.54.54,0,0,0-.536.54V22.3a.537.537,0,0,0,.536.536H4.424A.537.537,0,0,0,4.96,22.3V11.036A.537.537,0,0,0,4.424,10.5Z" transform="translate(0 6.21)"/>
      <path id="Path_153" data-name="Path 153" class="cls-1" d="M20.682,10.5H16.794a.538.538,0,0,0-.534.54V22.3a.535.535,0,0,0,.534.536h3.888a.536.536,0,0,0,.538-.536V11.036A.539.539,0,0,0,20.682,10.5Z" transform="translate(15.781 6.21)"/>
      <path id="Path_154" data-name="Path 154" class="cls-1" d="M8.087,7.228H4.2a.539.539,0,0,0-.538.538v17.7a.538.538,0,0,0,.538.536H8.087a.537.537,0,0,0,.538-.536V7.766A.536.536,0,0,0,8.087,7.228Z" transform="translate(3.553 3.039)"/>
      <path id="Path_155" data-name="Path 155" class="cls-1" d="M16.449,7.228H12.561a.535.535,0,0,0-.534.538v17.7a.535.535,0,0,0,.534.536h3.888a.536.536,0,0,0,.538-.536V7.766A.532.532,0,0,0,16.449,7.228Z" transform="translate(11.673 3.039)"/>
      <path id="Path_156" data-name="Path 156" class="cls-1" d="M12.19,9.218H8.3a.538.538,0,0,0-.536.536V23.536a.537.537,0,0,0,.536.536h3.89a.536.536,0,0,0,.538-.536V9.754A.537.537,0,0,0,12.19,9.218Z" transform="translate(7.535 4.97)"/>
      <path id="Path_157" data-name="Path 157" class="cls-1" d="M2.279,11.731A2.07,2.07,0,0,0,4.35,9.66a2,2,0,0,0-.091-.568L8.616,5.957a2.042,2.042,0,0,0,2.408-.483l4.113,2.38a1.979,1.979,0,0,0-.039.374,2.066,2.066,0,0,0,4.128.122L24.771,6.73a2.064,2.064,0,0,0,1.671.857,2.038,2.038,0,0,0,1.216-.4l4.66,3.161a2.187,2.187,0,0,0-.073.512,2.073,2.073,0,1,0,2.071-2.071,2.049,2.049,0,0,0-1.216.4L28.444,6.032a2.2,2.2,0,0,0,.069-.512,2.067,2.067,0,0,0-4.13-.122L18.84,7.017a2.048,2.048,0,0,0-3-.363l-4.28-2.481c0-.03.008-.055.008-.083a2.071,2.071,0,1,0-3.945.867l-4.168,3a2.042,2.042,0,0,0-1.174-.368,2.071,2.071,0,1,0,0,4.142Z" transform="translate(0.202 -2.018)"/>
    </g>
  </g>
</svg>
