<svg xmlns="http://www.w3.org/2000/svg" viewBox="0 0 171.945 41">
  <defs>
    <style>
      .cls-1 {
        fill: #313234;
      }

      .cls-2 {
        fill: #2cb3b1;
      }
    </style>
  </defs>
  <g id="black-logo" transform="translate(0)">
    <g id="Layer_1" data-name="Layer 1" transform="translate(0 0)">
      <path id="Path_12" data-name="Path 12" class="cls-1" d="M17.219,29.408V15.924a.583.583,0,0,1,.576-.583H30a.59.59,0,0,1,.583.583V40.417A.59.59,0,0,1,30,41H4.644A4.657,4.657,0,0,1,0,36.356V4.644A4.657,4.657,0,0,1,4.644,0H25.917a4.664,4.664,0,0,1,4.65,4.644v6.528a.59.59,0,0,1-.583.583h-12.2c-.319,0-.576-.169-.576-.373v-.373a1.193,1.193,0,0,0-1.193-1.193H14.541a1.193,1.193,0,0,0-1.193,1.193V29.991a1.193,1.193,0,0,0,1.193,1.193h1.485a1.193,1.193,0,0,0,1.193-1.193V16.433" transform="translate(0 0)"/>
      <path id="Path_13" data-name="Path 13" class="cls-1" d="M168.864,21.015a1.091,1.091,0,0,1,0-1L180.389.515c.156-.278.034-.5-.292-.5H166.9A1.186,1.186,0,0,0,166,.5l-3.1,4.745a2.488,2.488,0,0,1-.678.678c-.19.115-.346-.678-.346-1.017V.583A.59.59,0,0,0,161.3,0H149.876a.583.583,0,0,0-.576.583V40.417a.583.583,0,0,0,.576.583H161.3a.59.59,0,0,0,.583-.583v-4.63a3,3,0,0,1,.156-.956c.088-.2.678.359.861.624l3.308,5.057a1.2,1.2,0,0,0,.9.488h12.968c.319,0,.447-.224.285-.5Z" transform="translate(-48.088 0)"/>
      <path id="Path_14" data-name="Path 14" class="cls-2" d="M196.827.585c0-.678-.278-.739-.624-.183L184.388,19.5a2.135,2.135,0,0,0,0,2.034L196.2,40.615c.346.556.624.468.624-.19Z" transform="translate(-59.306 -0.008)"/>
      <path id="Path_15" data-name="Path 15" class="cls-1" d="M75.687,0H54.414A4.657,4.657,0,0,0,49.77,4.644V36.356A4.657,4.657,0,0,0,54.414,41H75.687a4.657,4.657,0,0,0,4.644-4.644V29.272a.576.576,0,0,0-.583-.576H67.769a.576.576,0,0,0-.576.576v.678a1.166,1.166,0,0,1-1.159,1.159H64.067a1.166,1.166,0,0,1-1.159-1.159V26.574a1.166,1.166,0,0,1,1.159-1.159H79.754a.583.583,0,0,0,.583-.583V4.644A4.657,4.657,0,0,0,75.687,0ZM67.192,14.351a1.166,1.166,0,0,1-1.159,1.166H64.067a1.166,1.166,0,0,1-1.159-1.166V11.009A1.166,1.166,0,0,1,64.067,9.85h1.966a1.166,1.166,0,0,1,1.159,1.159Z" transform="translate(-16.03 0)"/>
      <path id="Path_16" data-name="Path 16" class="cls-1" d="M125.67,0h-21.3a4.664,4.664,0,0,0-4.65,4.644V36.356A4.664,4.664,0,0,0,104.37,41h21.3a4.657,4.657,0,0,0,4.644-4.644V29.272a.583.583,0,0,0-.583-.576H117.725a.576.576,0,0,0-.576.576v.678a1.166,1.166,0,0,1-1.166,1.159h-1.959a1.166,1.166,0,0,1-1.159-1.159V26.574a1.166,1.166,0,0,1,1.159-1.159h15.714a.59.59,0,0,0,.583-.583V4.644A4.657,4.657,0,0,0,125.67,0Zm-8.521,14.351a1.166,1.166,0,0,1-1.166,1.166h-1.959a1.166,1.166,0,0,1-1.159-1.166V11.009a1.166,1.166,0,0,1,1.159-1.159h1.959a1.166,1.166,0,0,1,1.166,1.159Z" transform="translate(-32.119 0)"/>
      <path id="Path_17" data-name="Path 17" class="cls-1" d="M226.322,12.616h12.2a.583.583,0,0,0,.583-.583V4.644A4.657,4.657,0,0,0,234.436,0H213.164a4.657,4.657,0,0,0-4.644,4.644V21.151a3.987,3.987,0,0,0,4.034,4.3h12.019a1.166,1.166,0,0,1,1.166,1.159V29.95a1.166,1.166,0,0,1-1.166,1.166h-1.566a1.166,1.166,0,0,1-1.159-1.166V28.859a.576.576,0,0,0-.583-.576H209.1a.576.576,0,0,0-.576.576v7.5A4.657,4.657,0,0,0,213.164,41h21.273a4.657,4.657,0,0,0,4.644-4.644V19.863a4.026,4.026,0,0,0-4.067-4.42h-12a1.166,1.166,0,0,1-1.159-1.159V10.941a1.166,1.166,0,0,1,1.159-1.159h1.566a1.166,1.166,0,0,1,1.166,1.159v1.091a.583.583,0,0,0,.576.583Z" transform="translate(-67.162 0)"/>
    </g>
  </g>
</svg>
