<svg xmlns="http://www.w3.org/2000/svg" viewBox="0 0 37.001 30.423">
  <defs>
    <style>
      .cls-1 {
        fill: #fff;
      }
    </style>
  </defs>
  <g id="business-cards" transform="translate(0 -2.845)">
    <g id="Group_260" data-name="Group 260" transform="translate(0 2.845)">
      <path id="Path_159" data-name="Path 159" class="cls-1" d="M19.075,21.328H18.3a.729.729,0,0,1-.729-.729.55.55,0,0,1,.168-.4,5.234,5.234,0,0,0,1.105-1.667.31.31,0,0,0,.184.072c.436,0,.947-.964.947-1.62s-.059-1.188-.495-1.188a.581.581,0,0,0-.163.024c-.031-1.779-.481-4-3.2-4-2.836,0-3.166,2.216-3.2,3.994A.6.6,0,0,0,12.8,15.8c-.436,0-.5.532-.5,1.188s.512,1.62.948,1.62a.3.3,0,0,0,.15-.043A5.246,5.246,0,0,0,14.5,20.2a.552.552,0,0,1,.168.4.729.729,0,0,1-.729.729H13.16a3.006,3.006,0,0,0-3.006,3.007v.834a.949.949,0,0,0,.949.948h10.03a.948.948,0,0,0,.948-.948v-.834A3.006,3.006,0,0,0,19.075,21.328Z" transform="translate(1.585 -1.444)"/>
      <path id="Path_160" data-name="Path 160" class="cls-1" d="M26.789,12.912h-8.41a6.237,6.237,0,0,1,.49,2.016,1.227,1.227,0,0,1,.423.505h7.5a.7.7,0,0,0,.7-.7V13.615A.7.7,0,0,0,26.789,12.912Z" transform="translate(2.868 -1.274)"/>
      <path id="Path_161" data-name="Path 161" class="cls-1" d="M26.836,16.888H19.511a2.444,2.444,0,0,1-1.366,1.748c-.021.036-.045.069-.065.106v.668h8.755a.7.7,0,0,0,.7-.7V17.592A.7.7,0,0,0,26.836,16.888Z" transform="translate(2.822 -0.653)"/>
      <path id="Path_162" data-name="Path 162" class="cls-1" d="M26.426,20.862H20.708a3.858,3.858,0,0,1,.6,2.061v.461h5.119a.7.7,0,0,0,.7-.7V21.566A.7.7,0,0,0,26.426,20.862Z" transform="translate(3.232 -0.033)"/>
      <path id="Path_163" data-name="Path 163" class="cls-1" d="M31.994,6.846H8.729a4.32,4.32,0,0,0-4.32,4.32V28.323a4.321,4.321,0,0,0,4.32,4.32H31.994a4.321,4.321,0,0,0,4.319-4.32V11.166A4.319,4.319,0,0,0,31.994,6.846Zm2.28,21.477a2.284,2.284,0,0,1-2.281,2.282H8.729a2.284,2.284,0,0,1-2.281-2.282V11.166A2.283,2.283,0,0,1,8.729,8.885H31.994a2.283,2.283,0,0,1,2.281,2.281V28.323Z" transform="translate(0.688 -2.221)"/>
      <path id="Path_164" data-name="Path 164" class="cls-1" d="M4.32,4.885H27.584A2.281,2.281,0,0,1,29.69,6.3h2.127a4.323,4.323,0,0,0-4.234-3.452H4.32A4.32,4.32,0,0,0,0,7.165V24.322A4.306,4.306,0,0,0,3.924,28.6V26.562a2.279,2.279,0,0,1-1.883-2.24V7.165A2.283,2.283,0,0,1,4.32,4.885Z" transform="translate(0 -2.845)"/>
    </g>
  </g>
</svg>
