<svg xmlns="http://www.w3.org/2000/svg" viewBox="0 0 29.033 23.079">
  <defs>
    <style>
      .cls-1 {
        fill: #fff;
      }
    </style>
  </defs>
  <g id="dashboard" transform="translate(0 -52.499)">
    <g id="Group_253" data-name="Group 253" transform="translate(0 52.499)">
      <g id="Group_252" data-name="Group 252">
        <path id="Path_124" data-name="Path 124" class="cls-1" d="M209.587,123.83a1.134,1.134,0,0,0-1.441-.135c-1.7,1.157-10.209,6.973-11.123,7.888a3.4,3.4,0,0,0,4.812,4.812c.915-.915,6.731-9.426,7.888-11.123A1.134,1.134,0,0,0,209.587,123.83Zm-9.356,10.96a1.134,1.134,0,0,1-1.6-1.6c.355-.351,2.772-2.075,5.745-4.141C202.306,132.019,200.582,134.435,200.231,134.79Z" transform="translate(-184.913 -119.472)"/>
        <path id="Path_125" data-name="Path 125" class="cls-1" d="M5.23,72.29l-1.4.683a12.191,12.191,0,0,1-.764-10.306l1.6.769a1.134,1.134,0,1,0,.981-2.045l-1.584-.76a12.264,12.264,0,0,1,9.316-5.812v1.706a1.134,1.134,0,0,0,2.268,0V54.818a12.108,12.108,0,0,1,3.9,1.027,1.134,1.134,0,1,0,.933-2.067,14.5,14.5,0,0,0-18.024,21.3,1.134,1.134,0,0,0,1.44.389l2.325-1.134A1.134,1.134,0,1,0,5.23,72.29Z" transform="translate(0 -52.499)"/>
        <path id="Path_126" data-name="Path 126" class="cls-1" d="M395.633,192.162a1.134,1.134,0,1,0-2.067.933,12.209,12.209,0,0,1-.488,11l-1.462-.7a1.134,1.134,0,1,0-.975,2.048l2.382,1.134a1.134,1.134,0,0,0,1.43-.394,14.482,14.482,0,0,0,1.18-14.026Z" transform="translate(-367.88 -183.612)"/>
      </g>
    </g>
  </g>
</svg>
