<svg xmlns="http://www.w3.org/2000/svg" viewBox="0 0 36.001 33.034">
  <defs>
    <style>
      .cls-1 {
        fill: #fff;
      }
    </style>
  </defs>
  <g id="newspaper" transform="translate(0 -10.245)">
    <path id="Path_136" data-name="Path 136" class="cls-1" d="M34.915,14.955H31.047V11.331a1.086,1.086,0,0,0-1.086-1.086H1.086A1.086,1.086,0,0,0,0,11.331V39.715a3.568,3.568,0,0,0,3.564,3.564H32.438A3.568,3.568,0,0,0,36,39.715V16.042A1.086,1.086,0,0,0,34.915,14.955ZM2.173,12.418h26.7v27.3a3.543,3.543,0,0,0,.283,1.391H3.564a1.393,1.393,0,0,1-1.391-1.391ZM32.438,41.106a1.393,1.393,0,0,1-1.391-1.391V17.128h2.782V39.715A1.393,1.393,0,0,1,32.438,41.106Z" transform="translate(0 0)"/>
    <path id="Path_137" data-name="Path 137" class="cls-1" d="M26.008,51.393H47.664a1.086,1.086,0,0,0,1.086-1.086v-7.26a1.086,1.086,0,0,0-1.086-1.086H26.008a1.086,1.086,0,0,0-1.086,1.086v7.26A1.086,1.086,0,0,0,26.008,51.393Zm1.086-7.26H46.578v5.087H27.095Z" transform="translate(-21.312 -27.122)"/>
    <path id="Path_138" data-name="Path 138" class="cls-1" d="M26.008,136.991h9.459a1.086,1.086,0,0,0,1.086-1.086v-9.46a1.086,1.086,0,0,0-1.086-1.086H26.008a1.086,1.086,0,0,0-1.086,1.086v9.46A1.086,1.086,0,0,0,26.008,136.991Zm1.086-9.46h7.286v7.287H27.095Z" transform="translate(-21.312 -98.442)"/>
    <path id="Path_139" data-name="Path 139" class="cls-1" d="M121.515,125.358h-9.148a1.086,1.086,0,0,0,0,2.173h9.148a1.086,1.086,0,1,0,0-2.173Z" transform="translate(-95.164 -98.441)"/>
    <path id="Path_140" data-name="Path 140" class="cls-1" d="M121.515,190.672h-9.148a1.086,1.086,0,0,0,0,2.173h9.148a1.086,1.086,0,1,0,0-2.173Z" transform="translate(-95.164 -154.295)"/>
    <path id="Path_141" data-name="Path 141" class="cls-1" d="M121.515,158.011h-9.148a1.086,1.086,0,0,0,0,2.173h9.148a1.086,1.086,0,0,0,0-2.173Z" transform="translate(-95.164 -126.364)"/>
  </g>
</svg>
