<svg xmlns="http://www.w3.org/2000/svg" viewBox="0 0 24.695 30.788">
  <defs>
    <style>
      .cls-1 {
        fill: #fff;
      }
    </style>
  </defs>
  <g id="placeholder_1_" data-name="placeholder (1)" transform="translate(-47.2)">
    <g id="Group_262" data-name="Group 262" transform="translate(47.2)">
      <path id="Path_166" data-name="Path 166" class="cls-1" d="M59.541,0A12.357,12.357,0,0,0,47.2,12.341a12.147,12.147,0,0,0,.219,2.317c.006.045.032.181.084.413A12.154,12.154,0,0,0,48.33,17.5c1.33,3.13,4.254,7.939,10.669,13.09a.874.874,0,0,0,1.1,0c6.409-5.151,9.34-9.959,10.669-13.09a12.018,12.018,0,0,0,.826-2.433c.052-.232.077-.368.084-.413a12.692,12.692,0,0,0,.219-2.317A12.377,12.377,0,0,0,59.541,0Zm10.4,14.355c0,.013-.006.026-.006.039-.006.032-.026.129-.058.278v.013a10.247,10.247,0,0,1-.716,2.1c-.006.006-.006.019-.013.026-1.207,2.859-3.853,7.223-9.611,11.98-5.757-4.757-8.4-9.12-9.611-11.98-.006-.006-.006-.019-.013-.026a10.931,10.931,0,0,1-.716-2.1v-.013c-.039-.148-.052-.245-.058-.278,0-.013-.006-.026-.006-.045a10.6,10.6,0,1,1,20.809.006Z" transform="translate(-47.2)"/>
      <path id="Path_167" data-name="Path 167" class="cls-1" d="M124.836,71.9a7.836,7.836,0,1,0,7.836,7.836A7.848,7.848,0,0,0,124.836,71.9Zm0,13.929a6.093,6.093,0,1,1,6.093-6.093A6.1,6.1,0,0,1,124.836,85.829Z" transform="translate(-112.495 -67.259)"/>
    </g>
  </g>
</svg>
